<?xml version="1.0" standalone="no"?>
<!DOCTYPE svg PUBLIC "-//W3C//DTD SVG 20010904//EN"
 "http://www.w3.org/TR/2001/REC-SVG-20010904/DTD/svg10.dtd">
<svg version="1.0" xmlns="http://www.w3.org/2000/svg"
 width="329.000000pt" height="329.000000pt" viewBox="0 0 329.000000 329.000000"
 preserveAspectRatio="xMidYMid meet">
<metadata>
Created by potrace 1.11, written by Peter Selinger 2001-2013
</metadata>
<g transform="translate(0.000000,329.000000) scale(0.100000,-0.100000)"
fill="#000000" stroke="none">
<path d="M959 2012 c-86 -35 -139 -75 -186 -140 -52 -71 -54 -87 -13 -78 18 3
47 6 64 6 22 1 44 13 80 45 81 73 187 97 285 63 56 -19 136 -61 159 -85 7 -7
17 -13 22 -13 4 0 51 -42 103 -92 l96 -93 51 22 c63 28 63 29 -63 150 -105
100 -210 174 -301 212 -91 38 -209 39 -297 3z"/>
<path d="M2100 2036 c-3 -2 -21 -7 -42 -10 -60 -9 -144 -41 -302 -116 l-88
-41 28 -32 c16 -17 34 -37 41 -44 10 -12 28 -7 100 28 155 73 277 109 356 104
149 -10 274 -134 283 -279 6 -109 -37 -205 -118 -263 -106 -75 -207 -79 -334
-16 l-50 25 -62 -22 c-34 -13 -62 -26 -62 -30 0 -8 130 -83 182 -105 125 -51
284 -29 396 57 268 207 199 618 -122 726 -51 17 -195 30 -206 18z"/>
<path d="M3026 1809 c-43 -17 -95 -32 -277 -80 l-37 -9 5 -52 c2 -29 6 -54 8
-57 13 -12 383 93 406 116 8 8 5 21 -7 44 -10 19 -18 38 -19 44 0 16 -27 14
-79 -6z"/>
<path d="M1247 1710 c-55 -17 -104 -21 -372 -35 -133 -7 -185 -13 -340 -40
-95 -17 -369 -97 -387 -114 -4 -3 4 -30 17 -60 19 -40 28 -51 38 -43 7 6 64
26 127 45 101 31 158 45 250 62 14 3 36 7 50 9 89 17 174 25 347 31 171 6 271
19 364 50 l48 16 -54 45 c-30 24 -56 44 -57 43 -2 0 -16 -4 -31 -9z"/>
<path d="M2137 1674 c-1 -2 -20 -5 -42 -8 -136 -16 -309 -77 -560 -196 -201
-96 -220 -104 -297 -125 -5 -2 -9 -3 -10 -4 -10 -8 -64 -15 -123 -15 -80 -1
-156 29 -213 83 -19 17 -37 29 -41 27 -4 -3 -27 -6 -52 -7 -60 -3 -63 -6 -37
-42 94 -133 262 -203 418 -175 63 12 72 14 95 22 118 43 181 69 305 129 172
82 295 131 408 163 45 12 86 23 90 23 4 0 30 3 57 7 28 4 86 8 130 8 l80 2 5
29 c3 17 4 43 2 58 l-4 28 -104 -2 c-58 -2 -106 -4 -107 -5z"/>
</g>
</svg>
